<?xml version="1.0" encoding="UTF-8"?>
<svg width="606px" height="247px" viewBox="0 0 606 247" version="1.1" xmlns="http://www.w3.org/2000/svg" xmlns:xlink="http://www.w3.org/1999/xlink">
    <!-- Generator: Sketch 42 (36781) - http://www.bohemiancoding.com/sketch -->
    <title>Slice</title>
    <desc>Created with Sketch.</desc>
    <defs>
        <text id="text-1" font-family="FiraMono-Bold, Fira Mono" font-size="144" font-weight="bold" fill="#FFFFFF">
            <tspan x="169" y="180">idyll</tspan>
        </text>
        <filter x="-50%" y="-50%" width="200%" height="200%" filterUnits="objectBoundingBox" id="filter-2">
            <feOffset dx="2" dy="3" in="SourceAlpha" result="shadowOffsetOuter1"></feOffset>
            <feGaussianBlur stdDeviation="2" in="shadowOffsetOuter1" result="shadowBlurOuter1"></feGaussianBlur>
            <feColorMatrix values="0 0 0 0 0   0 0 0 0 0   0 0 0 0 0  0 0 0 0.5 0" type="matrix" in="shadowBlurOuter1"></feColorMatrix>
        </filter>
    </defs>
    <g id="Page-1" stroke="none" stroke-width="1" fill="none" fill-rule="evenodd">
        <g id="logo" transform="translate(56.526751, 123.741740) rotate(-345.000000) translate(-56.526751, -123.741740) translate(10.026751, -2.258260)" fill-rule="nonzero" fill="#5601FF">
            <g id="Page-1">
                <g id="Artboard-Copy-11">
                    <path d="M43.7647062,130.010934 L43.7647062,103.85772 L5.47058836,74.9550197 L5.47058836,101.108234 L43.7647062,130.010934 Z M49.2352938,130.017481 L87.5294116,101.108416 L87.5294116,74.9557476 L49.2352938,103.864812 L49.2352938,130.017481 Z M43.7647062,6.34219776 L5.47058836,15.9173922 L5.47058836,68.07294 L43.7647062,96.9756401 L43.7647062,6.34219776 Z M49.2352938,6.21469469 L49.2352938,96.982187 L87.5294116,68.0731214 L87.5294116,15.9108478 L49.2352938,6.21469469 Z M43.7647062,163.046228 L43.7647062,136.893015 L5.47058836,107.990314 L5.47058836,134.143528 L43.7647062,163.046228 Z M49.2352938,163.052775 L87.5294116,134.14371 L87.5294116,107.991042 L49.2352938,136.900107 L49.2352938,163.052775 Z M43.7647062,196.081523 L43.7647062,169.928309 L5.47058836,141.025608 L5.47058836,167.178822 L43.7647062,196.081523 Z M49.2352938,196.088069 L87.5294116,167.179004 L87.5294116,141.026336 L49.2352938,169.935401 L49.2352938,196.088069 Z M49.2352938,202.970695 L49.2352938,248.601599 C49.2352938,250.122007 48.0106612,252 46.5,252 C44.9893388,252 43.7647062,250.122007 43.7647062,248.601599 L43.7647062,202.963603 L1.09423299,170.757824 C0.405402023,170.237925 -8.52651283e-14,169.421943 -8.52651283e-14,168.555384 L-8.52651283e-14,13.7647059 C-8.52651283e-14,12.4999632 0.8562231,11.3979267 2.07578432,11.0929833 L46.1151846,0.08121852 C46.5509275,-0.0277362 47.0066204,-0.027058896 47.4420421,0.083190816 L90.9320534,11.0949556 C92.1477938,11.4027836 93,12.5029948 93,13.7647059 L93,168.555384 C93,169.421841 92.5946931,170.237738 91.9059981,170.757649 L49.2352938,202.970695 Z" id="Combined-Shape"></path>
                </g>
            </g>
        </g>
        <g id="idyll" fill-opacity="1" fill="#FFFFFF">
            <use filter="url(#filter-2)" xlink:href="#text-1"></use>
            <use xlink:href="#text-1"></use>
        </g>
    </g>
</svg>